<svg xmlns="http://www.w3.org/2000/svg" width="37.77" height="30.676" viewBox="0 0 37.77 30.676">
  <path id="Icon_awesome-twitter" data-name="Icon awesome-twitter" d="M33.888,11.026c.024.336.024.671.024,1.007,0,10.233-7.789,22.025-22.025,22.025A21.875,21.875,0,0,1,0,30.582a16.014,16.014,0,0,0,1.869.1,15.5,15.5,0,0,0,9.61-3.307A7.755,7.755,0,0,1,4.242,22a9.762,9.762,0,0,0,1.462.12,8.187,8.187,0,0,0,2.037-.264,7.742,7.742,0,0,1-6.207-7.6v-.1a7.8,7.8,0,0,0,3.5.983,7.753,7.753,0,0,1-2.4-10.353A22,22,0,0,0,18.6,12.9a8.739,8.739,0,0,1-.192-1.773,7.748,7.748,0,0,1,13.4-5.3,15.241,15.241,0,0,0,4.913-1.869,7.72,7.72,0,0,1-3.4,4.266,15.518,15.518,0,0,0,4.458-1.2,16.64,16.64,0,0,1-3.882,4Z" transform="translate(0 -3.381)"/>
</svg>
